<svg width="25" height="24" viewBox="0 0 25 24" fill="none" xmlns="http://www.w3.org/2000/svg">
<path d="M17.7605 20.28C16.7396 21.23 15.625 21.08 14.5521 20.63C13.4167 20.17 12.375 20.15 11.1771 20.63C9.67712 21.25 8.88545 21.07 7.98962 20.28C2.90629 15.25 3.65629 7.59 9.42712 7.31C10.8334 7.38 11.8125 8.05 12.6355 8.11C13.8646 7.87 15.0417 7.18 16.3542 7.27C17.9271 7.39 19.1146 7.99 19.8959 9.07C16.6459 10.94 17.4167 15.05 20.3959 16.2C19.8021 17.7 19.0313 19.19 17.75 20.29L17.7605 20.28ZM12.5313 7.25C12.375 5.02 14.2605 3.18 16.4271 3C16.7292 5.58 13.9896 7.5 12.5313 7.25Z" fill="black"/>
</svg>
