<svg width="40" height="40" viewBox="0 0 40 40" fill="none" xmlns="http://www.w3.org/2000/svg">
<g clip-path="url(#clip0_7_529)">
<mask id="mask0_7_529" style="mask-type:luminance" maskUnits="userSpaceOnUse" x="0" y="0" width="40" height="40">
<path d="M40 20C40 8.9543 31.0457 0 20 0C8.9543 0 0 8.9543 0 20C0 31.0457 8.9543 40 20 40C31.0457 40 40 31.0457 40 20Z" fill="white"/>
</mask>
<g mask="url(#mask0_7_529)">
<path d="M40 0H0V40H40V0Z" fill="#0C8F8F"/>
<path d="M44.3309 7.64242L15.4432 2.54874C11.4546 1.84545 7.65112 4.50869 6.94783 8.49724L1.85415 37.3849C1.15086 41.3735 3.8141 45.177 7.80266 45.8803L36.6904 50.974C40.6789 51.6773 44.4824 49.014 45.1857 45.0255L50.2794 16.1378C50.9827 12.1492 48.3194 8.34571 44.3309 7.64242Z" fill="#FFAD08"/>
<path d="M16.6667 26.6667C16.6667 27.7717 17.252 28.8315 18.2938 29.6129C19.3357 30.3943 20.7488 30.8333 22.2222 30.8333C23.6956 30.8333 25.1087 30.3943 26.1506 29.6129C27.1925 28.8315 27.7778 27.7717 27.7778 26.6667" fill="black"/>
<path d="M19.4444 21.1111C19.4444 20.4975 19.0713 20 18.6111 20C18.1509 20 17.7778 20.4975 17.7778 21.1111C17.7778 21.7248 18.1509 22.2222 18.6111 22.2222C19.0713 22.2222 19.4444 21.7248 19.4444 21.1111Z" fill="black"/>
<path d="M26.1111 21.1111C26.1111 20.4975 25.738 20 25.2778 20C24.8175 20 24.4444 20.4975 24.4444 21.1111C24.4444 21.7248 24.8175 22.2222 25.2778 22.2222C25.738 22.2222 26.1111 21.7248 26.1111 21.1111Z" fill="black"/>
</g>
</g>
<defs>
<clipPath id="clip0_7_529">
<rect width="40" height="40" fill="white"/>
</clipPath>
</defs>
</svg>
