<svg width="20" height="20" viewBox="0 0 20 20" fill="none" xmlns="http://www.w3.org/2000/svg">
<path d="M8.33294 7.5L12.4996 11.6667M12.4996 7.5L8.33294 11.6667M10.4163 16.6667C14.3283 16.6667 17.4996 13.4953 17.4996 9.58333C17.4996 5.67132 14.3283 2.5 10.4163 2.5C6.50425 2.5 3.33294 5.67132 3.33294 9.58333C3.33294 10.375 3.46281 11.1363 3.70242 11.8472C3.79258 12.1147 3.83766 12.2484 3.8458 12.3512C3.85383 12.4527 3.84775 12.5238 3.82265 12.6224C3.79723 12.7223 3.7411 12.8263 3.62885 13.034L2.2658 15.557C2.07138 15.9168 1.97416 16.0968 1.99592 16.2357C2.01487 16.3566 2.08606 16.4631 2.19059 16.5268C2.31059 16.6001 2.51402 16.579 2.9209 16.537L7.18841 16.0958C7.31765 16.0825 7.38226 16.0758 7.44116 16.0781C7.49909 16.0803 7.53998 16.0858 7.59647 16.0988C7.6539 16.112 7.72613 16.1398 7.87057 16.1954C8.66059 16.4998 9.51892 16.6667 10.4163 16.6667Z" stroke="white" stroke-width="2" stroke-linecap="round" stroke-linejoin="round"/>
</svg>
