<svg width="50" height="50" viewBox="0 0 50 50" fill="none" xmlns="http://www.w3.org/2000/svg">
<path d="M29.1667 22.9167H16.6667M20.8333 31.25H16.6667M33.3333 14.5833H16.6667M41.6667 21.875V14.1667C41.6667 10.6663 41.6667 8.91617 40.9854 7.57923C40.3862 6.40321 39.4302 5.44709 38.2542 4.84788C36.9171 4.16667 35.1671 4.16667 31.6667 4.16667H18.3333C14.833 4.16667 13.0828 4.16667 11.7459 4.84788C10.5699 5.44709 9.61375 6.40321 9.01454 7.57923C8.33333 8.91617 8.33333 10.6663 8.33333 14.1667V35.8333C8.33333 39.3338 8.33333 41.0838 9.01454 42.4208C9.61375 43.5969 10.5699 44.5529 11.7459 45.1521C13.0828 45.8333 14.833 45.8333 18.3333 45.8333H23.9583M45.8333 45.8333L42.7083 42.7083M44.7917 37.5C44.7917 41.5271 41.5271 44.7917 37.5 44.7917C33.4729 44.7917 30.2083 41.5271 30.2083 37.5C30.2083 33.4729 33.4729 30.2083 37.5 30.2083C41.5271 30.2083 44.7917 33.4729 44.7917 37.5Z" stroke="white" stroke-width="5" stroke-linecap="round" stroke-linejoin="round"/>
</svg>
