<svg width="18" height="18" viewBox="0 0 18 18" fill="none" xmlns="http://www.w3.org/2000/svg">
<g clip-path="url(#clip0_52_19)">
<path d="M4.5 10.5L5.625 8.32495C5.7473 8.08206 5.93334 7.87698 6.16321 7.73166C6.39308 7.58634 6.65812 7.50625 6.93 7.49995H15M15 7.49995C15.2292 7.49955 15.4553 7.55165 15.6612 7.65226C15.8671 7.75287 16.0472 7.89932 16.1877 8.08035C16.3282 8.26139 16.4253 8.4722 16.4716 8.69661C16.518 8.92103 16.5123 9.15308 16.455 9.37495L15.3 13.875C15.2164 14.1986 15.0272 14.4851 14.7622 14.6889C14.4972 14.8927 14.1718 15.0022 13.8375 14.9999H3C2.60218 14.9999 2.22064 14.8419 1.93934 14.5606C1.65804 14.2793 1.5 13.8978 1.5 13.5V3.74995C1.5 3.35213 1.65804 2.97059 1.93934 2.68929C2.22064 2.40799 2.60218 2.24995 3 2.24995H5.925C6.17587 2.24749 6.42334 2.30799 6.64478 2.42592C6.86621 2.54384 7.05453 2.71542 7.1925 2.92495L7.8 3.82495C7.93658 4.03235 8.12252 4.20259 8.34113 4.3204C8.55973 4.43821 8.80417 4.49991 9.0525 4.49995H13.5C13.8978 4.49995 14.2794 4.65799 14.5607 4.93929C14.842 5.22059 15 5.60213 15 5.99995V7.49995Z" stroke="white" stroke-width="2" stroke-linecap="round" stroke-linejoin="round"/>
</g>
<defs>
<clipPath id="clip0_52_19">
<rect width="18" height="18" fill="white"/>
</clipPath>
</defs>
</svg>
